<svg width="24" height="24" viewBox="0 0 24 24" fill="none" xmlns="http://www.w3.org/2000/svg">
<g clip-path="url(#clip0_0_2149)">
<path opacity="0.01" fill-rule="evenodd" clip-rule="evenodd" d="M0 0H24V24H0V0Z" fill="#FF0000" fill-opacity="0.1"/>
<path fill-rule="evenodd" clip-rule="evenodd" d="M13.8095 5.90476C13.8095 4.85714 12.9524 4 11.9048 4C10.8571 4 10 4.85714 10 5.90476C10 6.95238 10.8571 7.80952 11.9048 7.80952C12.9524 7.80952 13.8095 6.95238 13.8095 5.90476ZM10 12C10 13.0476 10.8571 13.9048 11.9048 13.9048C12.9524 13.9048 13.8095 13.0476 13.8095 12C13.8095 10.9524 12.9524 10.0952 11.9048 10.0952C10.8571 10.0952 10 10.9524 10 12ZM10 18.0952C10 19.1429 10.8571 20 11.9048 20C12.9524 20 13.8095 19.1429 13.8095 18.0952C13.8095 17.0476 12.9524 16.1905 11.9048 16.1905C10.8571 16.1905 10 17.0476 10 18.0952Z" fill="#191444"/>
<mask id="mask0_0_2149" style="mask-type:luminance" maskUnits="userSpaceOnUse" x="10" y="4" width="4" height="16">
<path fill-rule="evenodd" clip-rule="evenodd" d="M13.8095 5.90476C13.8095 4.85714 12.9524 4 11.9048 4C10.8571 4 10 4.85714 10 5.90476C10 6.95238 10.8571 7.80952 11.9048 7.80952C12.9524 7.80952 13.8095 6.95238 13.8095 5.90476ZM10 12C10 13.0476 10.8571 13.9048 11.9048 13.9048C12.9524 13.9048 13.8095 13.0476 13.8095 12C13.8095 10.9524 12.9524 10.0952 11.9048 10.0952C10.8571 10.0952 10 10.9524 10 12ZM10 18.0952C10 19.1429 10.8571 20 11.9048 20C12.9524 20 13.8095 19.1429 13.8095 18.0952C13.8095 17.0476 12.9524 16.1905 11.9048 16.1905C10.8571 16.1905 10 17.0476 10 18.0952Z" fill="white"/>
</mask>
<g mask="url(#mask0_0_2149)">
<rect width="24" height="24" fill="#A3A1B5"/>
</g>
</g>
<defs>
<clipPath id="clip0_0_2149">
<rect width="24" height="24" fill="white"/>
</clipPath>
</defs>
</svg>
