<svg width="18" height="18" viewBox="0 0 18 18" fill="none" xmlns="http://www.w3.org/2000/svg">
<g clip-path="url(#clip0_0_2261)">
<path opacity="0.01" fill-rule="evenodd" clip-rule="evenodd" d="M0 0H18V18H0V0Z" fill="#FF0000" fill-opacity="0.1"/>
<path fill-rule="evenodd" clip-rule="evenodd" d="M8.16667 10V14.6277C8.16667 14.8333 8.33257 15 8.53655 15H9.46345C9.66773 15 9.83333 14.8304 9.83333 14.6277V10H14.6277C14.8333 10 15 9.83411 15 9.63012V8.70323C15 8.49894 14.8304 8.33334 14.6277 8.33334H9.83333V3.37229C9.83333 3.16668 9.66743 3 9.46345 3H8.53655C8.33227 3 8.16667 3.16964 8.16667 3.37229V8.33334H3.37229C3.16668 8.33334 3 8.49924 3 8.70323V9.63012C3 9.8344 3.16964 10 3.37229 10H8.16667Z" fill="black"/>
<mask id="mask0_0_2261" style="mask-type:luminance" maskUnits="userSpaceOnUse" x="3" y="3" width="12" height="12">
<path fill-rule="evenodd" clip-rule="evenodd" d="M8.16667 10V14.6277C8.16667 14.8333 8.33257 15 8.53655 15H9.46345C9.66773 15 9.83333 14.8304 9.83333 14.6277V10H14.6277C14.8333 10 15 9.83411 15 9.63012V8.70323C15 8.49894 14.8304 8.33334 14.6277 8.33334H9.83333V3.37229C9.83333 3.16668 9.66743 3 9.46345 3H8.53655C8.33227 3 8.16667 3.16964 8.16667 3.37229V8.33334H3.37229C3.16668 8.33334 3 8.49924 3 8.70323V9.63012C3 9.8344 3.16964 10 3.37229 10H8.16667Z" fill="white"/>
</mask>
<g mask="url(#mask0_0_2261)">
<rect width="18" height="18" fill="white"/>
</g>
</g>
<defs>
<clipPath id="clip0_0_2261">
<rect width="18" height="18" fill="white"/>
</clipPath>
</defs>
</svg>
