<svg width="24" height="24" viewBox="0 0 24 24" fill="none" xmlns="http://www.w3.org/2000/svg">
<g clip-path="url(#clip0_1_2024)">
<path opacity="0.01" fill-rule="evenodd" clip-rule="evenodd" d="M0 0H24V24H0V0Z" fill="#FF0000" fill-opacity="0.1"/>
<path fill-rule="evenodd" clip-rule="evenodd" d="M10.8889 13.3333V19.5036C10.8889 19.7778 11.1101 20 11.3821 20H12.6179C12.8903 20 13.1111 19.7738 13.1111 19.5036V13.3333H19.5036C19.7778 13.3333 20 13.1121 20 12.8401V11.6043C20 11.3319 19.7738 11.1111 19.5036 11.1111H13.1111V4.49639C13.1111 4.22224 12.8899 4 12.6179 4H11.3821C11.1097 4 10.8889 4.22618 10.8889 4.49639V11.1111H4.49639C4.22224 11.1111 4 11.3323 4 11.6043V12.8401C4 13.1125 4.22618 13.3333 4.49639 13.3333H10.8889Z" fill="black"/>
<mask id="mask0_1_2024" style="mask-type:luminance" maskUnits="userSpaceOnUse" x="4" y="4" width="16" height="16">
<path fill-rule="evenodd" clip-rule="evenodd" d="M10.8889 13.3333V19.5036C10.8889 19.7778 11.1101 20 11.3821 20H12.6179C12.8903 20 13.1111 19.7738 13.1111 19.5036V13.3333H19.5036C19.7778 13.3333 20 13.1121 20 12.8401V11.6043C20 11.3319 19.7738 11.1111 19.5036 11.1111H13.1111V4.49639C13.1111 4.22224 12.8899 4 12.6179 4H11.3821C11.1097 4 10.8889 4.22618 10.8889 4.49639V11.1111H4.49639C4.22224 11.1111 4 11.3323 4 11.6043V12.8401C4 13.1125 4.22618 13.3333 4.49639 13.3333H10.8889Z" fill="white"/>
</mask>
<g mask="url(#mask0_1_2024)">
<rect width="24" height="24" fill="#D1D0DA"/>
</g>
</g>
<defs>
<clipPath id="clip0_1_2024">
<rect width="24" height="24" fill="white"/>
</clipPath>
</defs>
</svg>
