<svg width="24" height="24" viewBox="0 0 24 24" fill="none" xmlns="http://www.w3.org/2000/svg">
<g clip-path="url(#clip0_0_2185)">
<path opacity="0.01" fill-rule="evenodd" clip-rule="evenodd" d="M0 0H24V24H0V0Z" fill="#FF0000" fill-opacity="0.1"/>
<path fill-rule="evenodd" clip-rule="evenodd" d="M9.43826 14.6273C9.24297 14.8224 8.92653 14.8223 8.73133 14.6271L6.28755 12.1833C6.09262 11.9884 5.77668 11.988 5.58128 12.1825L4.35522 13.4028C4.15917 13.5979 4.1588 13.9151 4.35439 14.1107L8.73115 18.4875C8.92642 18.6827 9.243 18.6827 9.43826 18.4875L19.6464 8.27929C19.8417 8.08403 19.8417 7.76745 19.6464 7.57218L18.4276 6.35337C18.2324 6.15818 17.916 6.1581 17.7207 6.3532L9.43826 14.6273Z" fill="black"/>
<mask id="mask0_0_2185" style="mask-type:luminance" maskUnits="userSpaceOnUse" x="4" y="6" width="16" height="13">
<path fill-rule="evenodd" clip-rule="evenodd" d="M9.43826 14.6273C9.24297 14.8224 8.92653 14.8223 8.73133 14.6271L6.28755 12.1833C6.09262 11.9884 5.77668 11.988 5.58128 12.1825L4.35522 13.4028C4.15917 13.5979 4.1588 13.9151 4.35439 14.1107L8.73115 18.4875C8.92642 18.6827 9.243 18.6827 9.43826 18.4875L19.6464 8.27929C19.8417 8.08403 19.8417 7.76745 19.6464 7.57218L18.4276 6.35337C18.2324 6.15818 17.916 6.1581 17.7207 6.3532L9.43826 14.6273Z" fill="white"/>
</mask>
<g mask="url(#mask0_0_2185)">
<rect width="24" height="24" fill="#1E9032"/>
</g>
</g>
<defs>
<clipPath id="clip0_0_2185">
<rect width="24" height="24" fill="white"/>
</clipPath>
</defs>
</svg>
