<svg width="24" height="24" viewBox="0 0 24 24" fill="none" xmlns="http://www.w3.org/2000/svg">
<g clip-path="url(#clip0_1_1987)">
<path opacity="0.01" fill-rule="evenodd" clip-rule="evenodd" d="M0 0H24V24H0V0Z" fill="#FF0000" fill-opacity="0.1"/>
<path fill-rule="evenodd" clip-rule="evenodd" d="M10.1708 12.0866L5.16074 7.07653C4.94896 6.86476 4.94475 6.51444 5.15822 6.30097L6.1268 5.33238C6.33997 5.11922 6.68751 5.12004 6.90237 5.3349L11.9124 10.3449L17.0966 5.16074C17.3084 4.94896 17.6587 4.94475 17.8722 5.15822L18.8407 6.1268C19.0539 6.33997 19.0531 6.68751 18.8382 6.90237L13.654 12.0866L18.6641 17.0966C18.8758 17.3084 18.8801 17.6587 18.6666 17.8722L17.698 18.8407C17.4848 19.0539 17.1373 19.0531 16.9224 18.8382L11.9124 13.8282L7.07653 18.6641C6.86476 18.8758 6.51444 18.8801 6.30097 18.6666L5.33238 17.698C5.11922 17.4848 5.12004 17.1373 5.3349 16.9224L10.1708 12.0866Z" fill="black"/>
<mask id="mask0_1_1987" style="mask-type:luminance" maskUnits="userSpaceOnUse" x="5" y="5" width="14" height="14">
<path fill-rule="evenodd" clip-rule="evenodd" d="M10.1708 12.0866L5.16074 7.07653C4.94896 6.86476 4.94475 6.51444 5.15822 6.30097L6.1268 5.33238C6.33997 5.11922 6.68751 5.12004 6.90237 5.3349L11.9124 10.3449L17.0966 5.16074C17.3084 4.94896 17.6587 4.94475 17.8722 5.15822L18.8407 6.1268C19.0539 6.33997 19.0531 6.68751 18.8382 6.90237L13.654 12.0866L18.6641 17.0966C18.8758 17.3084 18.8801 17.6587 18.6666 17.8722L17.698 18.8407C17.4848 19.0539 17.1373 19.0531 16.9224 18.8382L11.9124 13.8282L7.07653 18.6641C6.86476 18.8758 6.51444 18.8801 6.30097 18.6666L5.33238 17.698C5.11922 17.4848 5.12004 17.1373 5.3349 16.9224L10.1708 12.0866Z" fill="white"/>
</mask>
<g mask="url(#mask0_1_1987)">
<rect width="24" height="24" fill="#74728F"/>
</g>
</g>
<defs>
<clipPath id="clip0_1_1987">
<rect width="24" height="24" fill="white"/>
</clipPath>
</defs>
</svg>
