<svg width="6" height="14" viewBox="0 0 6 14" fill="none" xmlns="http://www.w3.org/2000/svg">
<path fill-rule="evenodd" clip-rule="evenodd" d="M1 2C1.55228 2 2 1.55228 2 1C2 0.447715 1.55228 0 1 0C0.447715 0 0 0.447715 0 1C0 1.55228 0.447715 2 1 2ZM1 8C1.55228 8 2 7.55229 2 7C2 6.44771 1.55228 6 1 6C0.447715 6 0 6.44771 0 7C0 7.55229 0.447715 8 1 8ZM2 13C2 13.5523 1.55228 14 1 14C0.447715 14 0 13.5523 0 13C0 12.4477 0.447715 12 1 12C1.55228 12 2 12.4477 2 13ZM5 2C5.55228 2 6 1.55228 6 1C6 0.447715 5.55228 0 5 0C4.44772 0 4 0.447715 4 1C4 1.55228 4.44772 2 5 2ZM6 7C6 7.55229 5.55228 8 5 8C4.44772 8 4 7.55229 4 7C4 6.44771 4.44772 6 5 6C5.55228 6 6 6.44771 6 7ZM5 14C5.55228 14 6 13.5523 6 13C6 12.4477 5.55228 12 5 12C4.44772 12 4 12.4477 4 13C4 13.5523 4.44772 14 5 14Z" fill="#D1D0DA"/>
</svg>
