<svg width="18" height="18" viewBox="0 0 18 18" fill="none" xmlns="http://www.w3.org/2000/svg">
<g clip-path="url(#clip0_0_2218)">
<path opacity="0.01" fill-rule="evenodd" clip-rule="evenodd" d="M0 0H18V18H0V0Z" fill="#FF0000" fill-opacity="0.1"/>
<path fill-rule="evenodd" clip-rule="evenodd" d="M10.0071 2.25C6.17314 2.25 3.06429 5.2725 3.06429 9H0.75L3.75086 11.9175L3.80486 12.0225L6.92143 9H4.60714C4.60714 6.0975 7.02171 3.75 10.0071 3.75C12.9926 3.75 15.4071 6.0975 15.4071 9C15.4071 11.9025 12.9926 14.25 10.0071 14.25C8.51829 14.25 7.16829 13.6575 6.19629 12.705L5.10086 13.77C6.35829 14.9925 8.08629 15.75 10.0071 15.75C13.8411 15.75 16.95 12.7275 16.95 9C16.95 5.2725 13.8411 2.25 10.0071 2.25ZM9.23572 6V9.75L12.5374 11.655L13.0929 10.7475L10.3929 9.1875V6H9.23572V6Z" fill="#7F7F7F"/>
<mask id="mask0_0_2218" style="mask-type:luminance" maskUnits="userSpaceOnUse" x="0" y="2" width="17" height="14">
<path fill-rule="evenodd" clip-rule="evenodd" d="M10.0071 2.25C6.17314 2.25 3.06429 5.2725 3.06429 9H0.75L3.75086 11.9175L3.80486 12.0225L6.92143 9H4.60714C4.60714 6.0975 7.02171 3.75 10.0071 3.75C12.9926 3.75 15.4071 6.0975 15.4071 9C15.4071 11.9025 12.9926 14.25 10.0071 14.25C8.51829 14.25 7.16829 13.6575 6.19629 12.705L5.10086 13.77C6.35829 14.9925 8.08629 15.75 10.0071 15.75C13.8411 15.75 16.95 12.7275 16.95 9C16.95 5.2725 13.8411 2.25 10.0071 2.25ZM9.23572 6V9.75L12.5374 11.655L13.0929 10.7475L10.3929 9.1875V6H9.23572Z" fill="white"/>
</mask>
<g mask="url(#mask0_0_2218)">
<g filter="url(#filter0_dd_0_2218)">
<rect width="18" height="18" fill="#FE8F02"/>
</g>
</g>
</g>
<defs>
<filter id="filter0_dd_0_2218" x="-4" y="-4" width="26" height="26" filterUnits="userSpaceOnUse" color-interpolation-filters="sRGB">
<feFlood flood-opacity="0" result="BackgroundImageFix"/>
<feColorMatrix in="SourceAlpha" type="matrix" values="0 0 0 0 0 0 0 0 0 0 0 0 0 0 0 0 0 0 127 0" result="hardAlpha"/>
<feOffset/>
<feGaussianBlur stdDeviation="2"/>
<feColorMatrix type="matrix" values="0 0 0 0 0 0 0 0 0 0 0 0 0 0 0 0 0 0 0.24 0"/>
<feBlend mode="normal" in2="BackgroundImageFix" result="effect1_dropShadow_0_2218"/>
<feColorMatrix in="SourceAlpha" type="matrix" values="0 0 0 0 0 0 0 0 0 0 0 0 0 0 0 0 0 0 127 0" result="hardAlpha"/>
<feOffset/>
<feGaussianBlur stdDeviation="2"/>
<feColorMatrix type="matrix" values="0 0 0 0 0 0 0 0 0 0 0 0 0 0 0 0 0 0 0.12 0"/>
<feBlend mode="normal" in2="effect1_dropShadow_0_2218" result="effect2_dropShadow_0_2218"/>
<feBlend mode="normal" in="SourceGraphic" in2="effect2_dropShadow_0_2218" result="shape"/>
</filter>
<clipPath id="clip0_0_2218">
<rect width="18" height="18" fill="white"/>
</clipPath>
</defs>
</svg>
