<svg width="18" height="18" viewBox="0 0 18 18" fill="none" xmlns="http://www.w3.org/2000/svg">
<g clip-path="url(#clip0_0_2293)">
<path opacity="0.01" fill-rule="evenodd" clip-rule="evenodd" d="M0 0H18V18H0V0Z" fill="#FF0000" fill-opacity="0.1"/>
<path fill-rule="evenodd" clip-rule="evenodd" d="M8.99975 3C5.68648 3 3 5.68648 3 8.99975C3 12.313 5.68648 15 8.99975 15C12.313 15 15 12.313 15 8.99975C15 5.68648 12.313 3 8.99975 3ZM10.2488 12.2988C9.93994 12.4207 9.6941 12.5131 9.50972 12.5771C9.32585 12.6411 9.112 12.6731 8.8687 12.6731C8.49486 12.6731 8.20381 12.5817 7.99657 12.3993C7.78934 12.217 7.68623 11.9859 7.68623 11.705C7.68623 11.5958 7.69384 11.484 7.70908 11.3703C7.72483 11.2565 7.74972 11.1285 7.78375 10.9847L8.17029 9.61941C8.20432 9.48836 8.23378 9.36391 8.25715 9.2481C8.28051 9.13128 8.29169 9.0241 8.29169 8.92658C8.29169 8.75287 8.25562 8.63096 8.184 8.56239C8.11137 8.49382 7.97473 8.46029 7.77105 8.46029C7.6715 8.46029 7.56889 8.47502 7.46375 8.50601C7.35962 8.53801 7.26921 8.56696 7.19505 8.59541L7.29715 8.17483C7.5501 8.07172 7.79238 7.98334 8.0235 7.9102C8.25461 7.83604 8.47302 7.79947 8.67873 7.79947C9.05004 7.79947 9.33651 7.88988 9.53816 8.06868C9.7388 8.24798 9.83988 8.48112 9.83988 8.7676C9.83988 8.82702 9.83277 8.93166 9.81905 9.08099C9.80534 9.23083 9.77943 9.36747 9.74185 9.49293L9.35734 10.8542C9.32585 10.9634 9.29791 11.0884 9.27251 11.228C9.24762 11.3677 9.23543 11.4744 9.23543 11.546C9.23543 11.7268 9.27556 11.8503 9.35683 11.9158C9.43708 11.9813 9.57778 12.0143 9.77689 12.0143C9.87086 12.0143 9.976 11.9976 10.0949 11.9651C10.2127 11.9325 10.298 11.9036 10.3519 11.8787L10.2488 12.2988ZM9.53308 7.02339C9.78553 7.02339 10.0014 6.94008 10.1807 6.77348C10.36 6.60688 10.4499 6.40472 10.4499 6.16751C10.4499 5.93132 10.36 5.72815 10.1807 5.56002C10.0019 5.39139 9.78553 5.30758 9.53308 5.30758C9.28115 5.30758 9.06375 5.39139 8.88292 5.56002C8.70362 5.72815 8.61219 5.93132 8.61219 6.16751C8.61219 6.40421 8.70311 6.60688 8.88292 6.77348C9.06375 6.94008 9.28115 7.02339 9.53308 7.02339Z" fill="#030104"/>
<mask id="mask0_0_2293" style="mask-type:luminance" maskUnits="userSpaceOnUse" x="3" y="3" width="12" height="12">
<path fill-rule="evenodd" clip-rule="evenodd" d="M8.99975 3C5.68648 3 3 5.68648 3 8.99975C3 12.313 5.68648 15 8.99975 15C12.313 15 15 12.313 15 8.99975C15 5.68648 12.313 3 8.99975 3ZM10.2488 12.2988C9.93994 12.4207 9.6941 12.5131 9.50972 12.5771C9.32585 12.6411 9.112 12.6731 8.8687 12.6731C8.49486 12.6731 8.20381 12.5817 7.99657 12.3993C7.78934 12.217 7.68623 11.9859 7.68623 11.705C7.68623 11.5958 7.69384 11.484 7.70908 11.3703C7.72483 11.2565 7.74972 11.1285 7.78375 10.9847L8.17029 9.61941C8.20432 9.48836 8.23378 9.36391 8.25715 9.2481C8.28051 9.13128 8.29169 9.0241 8.29169 8.92658C8.29169 8.75287 8.25562 8.63096 8.184 8.56239C8.11137 8.49382 7.97473 8.46029 7.77105 8.46029C7.6715 8.46029 7.56889 8.47502 7.46375 8.50601C7.35962 8.53801 7.26921 8.56696 7.19505 8.59541L7.29715 8.17483C7.5501 8.07172 7.79238 7.98334 8.0235 7.9102C8.25461 7.83604 8.47302 7.79947 8.67873 7.79947C9.05004 7.79947 9.33651 7.88988 9.53816 8.06868C9.7388 8.24798 9.83988 8.48112 9.83988 8.7676C9.83988 8.82702 9.83277 8.93166 9.81905 9.08099C9.80534 9.23083 9.77943 9.36747 9.74185 9.49293L9.35734 10.8542C9.32585 10.9634 9.29791 11.0884 9.27251 11.228C9.24762 11.3677 9.23543 11.4744 9.23543 11.546C9.23543 11.7268 9.27556 11.8503 9.35683 11.9158C9.43708 11.9813 9.57778 12.0143 9.77689 12.0143C9.87086 12.0143 9.976 11.9976 10.0949 11.9651C10.2127 11.9325 10.298 11.9036 10.3519 11.8787L10.2488 12.2988ZM9.53308 7.02339C9.78553 7.02339 10.0014 6.94008 10.1807 6.77348C10.36 6.60688 10.4499 6.40472 10.4499 6.16751C10.4499 5.93132 10.36 5.72815 10.1807 5.56002C10.0019 5.39139 9.78553 5.30758 9.53308 5.30758C9.28115 5.30758 9.06375 5.39139 8.88292 5.56002C8.70362 5.72815 8.61219 5.93132 8.61219 6.16751C8.61219 6.40421 8.70311 6.60688 8.88292 6.77348C9.06375 6.94008 9.28115 7.02339 9.53308 7.02339Z" fill="white"/>
</mask>
<g mask="url(#mask0_0_2293)">
<rect width="18" height="18" fill="#D1D0DA"/>
</g>
</g>
<defs>
<clipPath id="clip0_0_2293">
<rect width="18" height="18" fill="white"/>
</clipPath>
</defs>
</svg>
