<svg width="16" height="16" viewBox="0 0 16 16" fill="none" xmlns="http://www.w3.org/2000/svg">
<g clip-path="url(#clip0_0_2131)">
<path opacity="0.01" fill-rule="evenodd" clip-rule="evenodd" d="M0 0H16V16H0V0Z" fill="#FF0000" fill-opacity="0.1"/>
<path fill-rule="evenodd" clip-rule="evenodd" d="M7.99978 2.66667C5.05465 2.66667 2.66667 5.05465 2.66667 7.99978C2.66667 10.9449 5.05465 13.3333 7.99978 13.3333C10.9449 13.3333 13.3333 10.9449 13.3333 7.99978C13.3333 5.05465 10.9449 2.66667 7.99978 2.66667ZM9.11002 10.9322C8.83551 11.0406 8.61698 11.1228 8.45308 11.1797C8.28964 11.2365 8.09956 11.265 7.88329 11.265C7.55099 11.265 7.29228 11.1837 7.10807 11.0216C6.92386 10.8595 6.8322 10.6541 6.8322 10.4044C6.8322 10.3074 6.83898 10.208 6.85252 10.1069C6.86652 10.0058 6.88864 9.89198 6.91889 9.76421L7.26248 8.55058C7.29273 8.43409 7.31892 8.32347 7.33969 8.22053C7.36046 8.11669 7.37039 8.02142 7.37039 7.93473C7.37039 7.78032 7.33833 7.67196 7.27467 7.61101C7.21011 7.55006 7.08865 7.52026 6.9076 7.52026C6.81911 7.52026 6.72791 7.53335 6.63445 7.56089C6.54189 7.58934 6.46152 7.61507 6.3956 7.64036L6.48635 7.26651C6.7112 7.17486 6.92657 7.0963 7.132 7.03128C7.33743 6.96536 7.53158 6.93286 7.71443 6.93286C8.04448 6.93286 8.29912 7.01322 8.47837 7.17215C8.65671 7.33153 8.74656 7.53877 8.74656 7.79341C8.74656 7.84624 8.74024 7.93925 8.72805 8.07199C8.71586 8.20518 8.69283 8.32663 8.65942 8.43815L8.31764 9.64817C8.28964 9.74524 8.26481 9.85631 8.24224 9.98048C8.22011 10.1046 8.20928 10.1995 8.20928 10.2631C8.20928 10.4238 8.24494 10.5336 8.31718 10.5918C8.38852 10.65 8.51359 10.6794 8.69057 10.6794C8.7741 10.6794 8.86756 10.6645 8.97321 10.6356C9.07796 10.6067 9.15381 10.581 9.20167 10.5588L9.11002 10.9322ZM8.47385 6.24302C8.69825 6.24302 8.89014 6.16898 9.04951 6.02089C9.20889 5.87279 9.28881 5.6931 9.28881 5.48225C9.28881 5.2723 9.20889 5.0917 9.04951 4.94225C8.89059 4.79236 8.69825 4.71786 8.47385 4.71786C8.24991 4.71786 8.05667 4.79236 7.89593 4.94225C7.73655 5.0917 7.65528 5.2723 7.65528 5.48225C7.65528 5.69265 7.7361 5.87279 7.89593 6.02089C8.05667 6.16898 8.24991 6.24302 8.47385 6.24302Z" fill="#030104"/>
<mask id="mask0_0_2131" style="mask-type:luminance" maskUnits="userSpaceOnUse" x="2" y="2" width="12" height="12">
<path fill-rule="evenodd" clip-rule="evenodd" d="M7.99978 2.66667C5.05465 2.66667 2.66667 5.05465 2.66667 7.99978C2.66667 10.9449 5.05465 13.3333 7.99978 13.3333C10.9449 13.3333 13.3333 10.9449 13.3333 7.99978C13.3333 5.05465 10.9449 2.66667 7.99978 2.66667ZM9.11002 10.9322C8.83551 11.0406 8.61698 11.1228 8.45308 11.1797C8.28964 11.2365 8.09956 11.265 7.88329 11.265C7.55099 11.265 7.29228 11.1837 7.10807 11.0216C6.92386 10.8595 6.8322 10.6541 6.8322 10.4044C6.8322 10.3074 6.83898 10.208 6.85252 10.1069C6.86652 10.0058 6.88864 9.89198 6.91889 9.76421L7.26248 8.55058C7.29273 8.43409 7.31892 8.32347 7.33969 8.22053C7.36046 8.11669 7.37039 8.02142 7.37039 7.93473C7.37039 7.78032 7.33833 7.67196 7.27467 7.61101C7.21011 7.55006 7.08865 7.52026 6.9076 7.52026C6.81911 7.52026 6.72791 7.53335 6.63445 7.56089C6.54189 7.58934 6.46152 7.61507 6.3956 7.64036L6.48635 7.26651C6.7112 7.17486 6.92657 7.0963 7.132 7.03128C7.33743 6.96536 7.53158 6.93286 7.71443 6.93286C8.04448 6.93286 8.29912 7.01322 8.47837 7.17215C8.65671 7.33153 8.74656 7.53877 8.74656 7.79341C8.74656 7.84624 8.74024 7.93925 8.72805 8.07199C8.71586 8.20518 8.69283 8.32663 8.65942 8.43815L8.31764 9.64817C8.28964 9.74524 8.26481 9.85631 8.24224 9.98048C8.22011 10.1046 8.20928 10.1995 8.20928 10.2631C8.20928 10.4238 8.24494 10.5336 8.31718 10.5918C8.38852 10.65 8.51359 10.6794 8.69057 10.6794C8.7741 10.6794 8.86756 10.6645 8.97321 10.6356C9.07796 10.6067 9.15381 10.581 9.20167 10.5588L9.11002 10.9322ZM8.47385 6.24302C8.69825 6.24302 8.89014 6.16898 9.04951 6.02089C9.20889 5.87279 9.28881 5.6931 9.28881 5.48225C9.28881 5.2723 9.20889 5.0917 9.04951 4.94225C8.89059 4.79236 8.69825 4.71786 8.47385 4.71786C8.24991 4.71786 8.05667 4.79236 7.89593 4.94225C7.73655 5.0917 7.65528 5.2723 7.65528 5.48225C7.65528 5.69265 7.7361 5.87279 7.89593 6.02089C8.05667 6.16898 8.24991 6.24302 8.47385 6.24302Z" fill="white"/>
</mask>
<g mask="url(#mask0_0_2131)">
<rect width="16" height="16" fill="#A3A1B5"/>
</g>
</g>
<defs>
<clipPath id="clip0_0_2131">
<rect width="16" height="16" fill="white"/>
</clipPath>
</defs>
</svg>
