<svg width="24" height="24" viewBox="0 0 24 24" fill="none" xmlns="http://www.w3.org/2000/svg">
<g clip-path="url(#clip0_1_2012)">
<path opacity="0.01" fill-rule="evenodd" clip-rule="evenodd" d="M0 0H24V24H0V0Z" fill="#FF0000" fill-opacity="0.1"/>
<path fill-rule="evenodd" clip-rule="evenodd" d="M5.44995 11L18.5501 11.006C18.8021 11.0061 19 11.2299 19 11.5057V13.2301C19 13.4974 18.7986 13.7296 18.5501 13.7296H5.44995C5.19791 13.7296 5 13.5055 5 13.2289L5 11.5005C5 11.214 5.20145 10.9999 5.44995 11Z" fill="black"/>
<mask id="mask0_1_2012" style="mask-type:luminance" maskUnits="userSpaceOnUse" x="5" y="11" width="14" height="3">
<path fill-rule="evenodd" clip-rule="evenodd" d="M5.44995 11L18.5501 11.006C18.8021 11.0061 19 11.2299 19 11.5057V13.2301C19 13.4974 18.7986 13.7296 18.5501 13.7296H5.44995C5.19791 13.7296 5 13.5055 5 13.2289L5 11.5005C5 11.214 5.20145 10.9999 5.44995 11Z" fill="white"/>
</mask>
<g mask="url(#mask0_1_2012)">
<rect width="24" height="24" fill="#D1D0DA"/>
</g>
</g>
<defs>
<clipPath id="clip0_1_2012">
<rect width="24" height="24" fill="white"/>
</clipPath>
</defs>
</svg>
