<svg width="16" height="16" viewBox="0 0 16 16" fill="none" xmlns="http://www.w3.org/2000/svg">
<g clip-path="url(#clip0_0_1753)">
<path opacity="0.01" fill-rule="evenodd" clip-rule="evenodd" d="M0 0H16V16H0V0Z" fill="#FF0000" fill-opacity="0.1"/>
<path fill-rule="evenodd" clip-rule="evenodd" d="M10.6667 7.33333C11.7734 7.33333 12.66 6.44 12.66 5.33333C12.66 4.22667 11.7734 3.33333 10.6667 3.33333C9.56002 3.33333 8.66669 4.22667 8.66669 5.33333C8.66669 6.44 9.56002 7.33333 10.6667 7.33333ZM5.33335 7.33333C6.44002 7.33333 7.32669 6.44 7.32669 5.33333C7.32669 4.22667 6.44002 3.33333 5.33335 3.33333C4.22669 3.33333 3.33335 4.22667 3.33335 5.33333C3.33335 6.44 4.22669 7.33333 5.33335 7.33333ZM5.33335 8.66667C3.78002 8.66667 0.666687 9.44667 0.666687 11V12.6667H10V11C10 9.44667 6.88669 8.66667 5.33335 8.66667ZM10.6667 8.66667C10.4734 8.66667 10.2534 8.68 10.02 8.7C10.7934 9.26 11.3334 10.0133 11.3334 11V12.6667H15.3334V11C15.3334 9.44667 12.22 8.66667 10.6667 8.66667Z" fill="black" fill-opacity="0.7"/>
<mask id="mask0_0_1753" style="mask-type:luminance" maskUnits="userSpaceOnUse" x="0" y="3" width="16" height="10">
<path fill-rule="evenodd" clip-rule="evenodd" d="M10.6667 7.33333C11.7734 7.33333 12.66 6.44 12.66 5.33333C12.66 4.22667 11.7734 3.33333 10.6667 3.33333C9.56002 3.33333 8.66669 4.22667 8.66669 5.33333C8.66669 6.44 9.56002 7.33333 10.6667 7.33333ZM5.33335 7.33333C6.44002 7.33333 7.32669 6.44 7.32669 5.33333C7.32669 4.22667 6.44002 3.33333 5.33335 3.33333C4.22669 3.33333 3.33335 4.22667 3.33335 5.33333C3.33335 6.44 4.22669 7.33333 5.33335 7.33333ZM5.33335 8.66667C3.78002 8.66667 0.666687 9.44667 0.666687 11V12.6667H10V11C10 9.44667 6.88669 8.66667 5.33335 8.66667ZM10.6667 8.66667C10.4734 8.66667 10.2534 8.68 10.02 8.7C10.7934 9.26 11.3334 10.0133 11.3334 11V12.6667H15.3334V11C15.3334 9.44667 12.22 8.66667 10.6667 8.66667Z" fill="white"/>
</mask>
<g mask="url(#mask0_0_1753)">
<rect width="16" height="16" fill="#D1D0DA"/>
</g>
</g>
<defs>
<clipPath id="clip0_0_1753">
<rect width="16" height="16" fill="white"/>
</clipPath>
</defs>
</svg>
