<svg width="16" height="16" viewBox="0 0 16 16" fill="none" xmlns="http://www.w3.org/2000/svg">
<g clip-path="url(#clip0_0_1784)">
<path opacity="0.01" fill-rule="evenodd" clip-rule="evenodd" d="M0 0H16V16H0V0Z" fill="#FF0000" fill-opacity="0.1"/>
<path fill-rule="evenodd" clip-rule="evenodd" d="M8.00002 2.66666C6.52669 2.66666 5.33335 3.86 5.33335 5.33333C5.33335 6.80666 6.52669 8 8.00002 8C9.47335 8 10.6667 6.80666 10.6667 5.33333C10.6667 3.86 9.47335 2.66666 8.00002 2.66666ZM8.00002 8.66666C6.22002 8.66666 2.66669 9.56 2.66669 11.3333V13.3333H13.3334V11.3333C13.3334 9.56 9.78002 8.66666 8.00002 8.66666Z" fill="#7F7F7F"/>
<mask id="mask0_0_1784" style="mask-type:luminance" maskUnits="userSpaceOnUse" x="2" y="2" width="12" height="12">
<path fill-rule="evenodd" clip-rule="evenodd" d="M8.00002 2.66666C6.52669 2.66666 5.33335 3.86 5.33335 5.33333C5.33335 6.80666 6.52669 8 8.00002 8C9.47335 8 10.6667 6.80666 10.6667 5.33333C10.6667 3.86 9.47335 2.66666 8.00002 2.66666ZM8.00002 8.66666C6.22002 8.66666 2.66669 9.56 2.66669 11.3333V13.3333H13.3334V11.3333C13.3334 9.56 9.78002 8.66666 8.00002 8.66666Z" fill="white"/>
</mask>
<g mask="url(#mask0_0_1784)">
<rect width="16" height="16" fill="#D1D0DA"/>
</g>
</g>
<defs>
<clipPath id="clip0_0_1784">
<rect width="16" height="16" fill="white"/>
</clipPath>
</defs>
</svg>
