<svg width="24" height="24" viewBox="0 0 24 24" fill="none" xmlns="http://www.w3.org/2000/svg">
<g clip-path="url(#clip0_0_2167)">
<path opacity="0.01" fill-rule="evenodd" clip-rule="evenodd" d="M0 0H24V24H0V0Z" fill="#FF0000" fill-opacity="0.1"/>
<path fill-rule="evenodd" clip-rule="evenodd" d="M3 8.97V14.97H7L12 19.97V3.97L7 8.97H3ZM16.5 11.97C16.5 10.2 15.48 8.68 14 7.94V15.99C15.48 15.26 16.5 13.74 16.5 11.97ZM14 3.2V5.26C16.89 6.12 19 8.8 19 11.97C19 15.14 16.89 17.82 14 18.68V20.74C18.01 19.83 21 16.25 21 11.97C21 7.69 18.01 4.11 14 3.2Z" fill="black" fill-opacity="0.7"/>
<mask id="mask0_0_2167" style="mask-type:luminance" maskUnits="userSpaceOnUse" x="3" y="3" width="18" height="18">
<path fill-rule="evenodd" clip-rule="evenodd" d="M3 8.97V14.97H7L12 19.97V3.97L7 8.97H3ZM16.5 11.97C16.5 10.2 15.48 8.68 14 7.94V15.99C15.48 15.26 16.5 13.74 16.5 11.97ZM14 3.2V5.26C16.89 6.12 19 8.8 19 11.97C19 15.14 16.89 17.82 14 18.68V20.74C18.01 19.83 21 16.25 21 11.97C21 7.69 18.01 4.11 14 3.2Z" fill="white"/>
</mask>
<g mask="url(#mask0_0_2167)">
<rect width="24" height="24" fill="#A3A1B5"/>
</g>
</g>
<defs>
<clipPath id="clip0_0_2167">
<rect width="24" height="24" fill="white"/>
</clipPath>
</defs>
</svg>
